<?xml version="1.0" encoding="UTF-8"?><svg xmlns="http://www.w3.org/2000/svg" xmlns:xlink="http://www.w3.org/1999/xlink" viewBox="0 0 48 48" version="1.1"><g id="surface1"><path d="M12 40V8c0-2.21 1.79-4 4-4h16c2.21 0 4 1.79 4 4v32c0 2.21-1.79 4-4 4H16c-2.21 0-4-1.79-4-4" fill="#37474F"/><path d="M32 10H16c-.55 0-1 .45-1 1v26c0 .55.45 1 1 1h16c.55 0 1-.45 1-1V11c0-.55-.45-1-1-1" fill="#BBDEFB"/><path d="M21.477 21.867c-.586 0-1.27.153-2.079.469l1.075-3.82c.828-.344 1.543-.516 2.18-.516.921 0 1.562.355 2.124.738l-1.097 3.883c-.594-.394-1.27-.746-2.203-.754zm2.847 2.52l-1.097 3.875c.562.386 1.199.738 2.12.738.637 0 1.352-.164 2.18-.512l1.043-3.715c-.746.235-1.398.352-1.976.352-.996 0-1.68-.348-2.27-.738zm3.617-4.258c-.96 0-1.648-.356-2.218-.727l-1.098 3.903c.582.39 1.246.734 2.148.734.649 0 1.352-.172 2.149-.527L30 19.695c-.766.29-1.441.434-2.059.434zm-6.656 2.918c-.644 0-1.375.168-2.223.523L18 27.371c.758-.293 1.426-.433 2.035-.433.957 0 1.637.347 2.23.742l1.11-3.918c-.64-.434-1.254-.715-2.09-.715z" fill="#1565C0"/><path d="M28 7c0 .555-.445 1-1 1h-6c-.555 0-1-.445-1-1 0-.555.445-1 1-1h6c.555 0 1 .445 1 1z"/><path d="M32 40h-3v2h3c.555 0 1-.445 1-1 0-.555-.445-1-1-1z" fill="#78909C"/><path d="M19 40h-3c-.555 0-1 .445-1 1 0 .555.445 1 1 1h3z" fill="#78909C"/><path d="M21 40h6v2h-6z" fill="#78909C"/></g><metadata><rdf:RDF xmlns:rdf="http://www.w3.org/1999/02/22-rdf-syntax-ns#" xmlns:rdfs="http://www.w3.org/2000/01/rdf-schema#" xmlns:dc="http://purl.org/dc/elements/1.1/"><rdf:Description about="https://iconscout.com/legal#licenses" dc:title="windows" dc:description="windows" dc:publisher="Iconscout" dc:date="2017-12-15" dc:format="image/svg+xml" dc:language="en"><dc:creator><rdf:Bag><rdf:li>Icons8</rdf:li></rdf:Bag></dc:creator></rdf:Description></rdf:RDF></metadata></svg>