<?xml version="1.0" encoding="UTF-8"?><svg xmlns="http://www.w3.org/2000/svg" xmlns:xlink="http://www.w3.org/1999/xlink" viewBox="0 0 48 48" version="1.1"><g id="surface1"><path d="M5.016 28.773S4.359 20.88 11.598 15c-1.235 2.254-3.54 5.477-3.54 11.273 0 5.797 2.47 10.149 7.489 10.149 5.015 0 9.453-3.383 9.453-3.383S18.508 39 13.238 39c-5.265 0-8.222-5.074-8.222-10.227z" fill="#5C6BC0"/><path d="M12 16.469l10.645 1.765L28.313 9l1.39 10.664L40 21.77l-9.547 4.793L31.32 37l-7.347-7.355-10.008 4.218 5.148-9.351z" fill="#FFB300"/><path d="M38.012 18.219c.164-.055 1.843 2.836 2.312 2.734.465-.113 2.145-3.031 2.281-2.95.141.083-1.593 2.997-1.316 3.321.273.328 3.684.38 3.711.567.027.191-3.41-.024-3.629.625-.223.648 1.512 3.297 1.375 3.402-.137.105-1.629-2.676-2.258-2.758-.629-.082-2.144 2.89-2.336 2.84-.152-.047 1.43-3.73 1.43-4.078 0-.352-1.738-3.649-1.57-3.703z" fill="#FFC107"/></g><metadata><rdf:RDF xmlns:rdf="http://www.w3.org/1999/02/22-rdf-syntax-ns#" xmlns:rdfs="http://www.w3.org/2000/01/rdf-schema#" xmlns:dc="http://purl.org/dc/elements/1.1/"><rdf:Description about="https://iconscout.com/legal#licenses" dc:title="mandriva" dc:description="mandriva" dc:publisher="Iconscout" dc:date="2017-12-15" dc:format="image/svg+xml" dc:language="en"><dc:creator><rdf:Bag><rdf:li>Icons8</rdf:li></rdf:Bag></dc:creator></rdf:Description></rdf:RDF></metadata></svg>