<?xml version="1.0" encoding="UTF-8"?><svg xmlns="http://www.w3.org/2000/svg" xmlns:xlink="http://www.w3.org/1999/xlink" viewBox="0 0 48 48" version="1.1"><g id="surface1"><path d="M36.863 9.355c1.703-1.066 1.504-1.378 2.18-2.05-.398-1.38-.926-2.946-.074-4.305-4.07 1.895-6.899 5.957-9.328 9.734.582 1.766 1.91 2.13 3.086 3.504-1.465-.136-2.84-1.511-3.543-2.785-.329.516-.653 1.02-.97 1.512-2.183 3.379-2.491 7.61-4.148 11.105-.105 1.453.653 2.47 2.52 3.094-1.387-.004-2.55-.621-3.203-1.828-.078.125-.16.254-.246.375-2.383 3.516-8.2 11.086.43 10.223 4.417-.446 12.8-7.641 12.8-7.641s-3.937-.387-5.62-.664c2.507.262 4.898-.055 7.019-1.442.234-.425.441-.847.613-1.273.668-1.66.848-3.879.984-5.828-1.226.668-2.586.602-4.101.215a7.895 7.895 0 0 0 4.148-1.567l.043.032.035-.422c.375-4.399.977-6.84-.082-10.895-1.996.547-1.894.496-2.543.906z" fill="#7CB342"/><path d="M8.234 42.129c.805-.223 1.82-.617 2.73-.98a62.188 62.188 0 0 0 8.14-4.04c3.474-2.07 6.767-4.488 9.49-7.453 2.73-2.937 4.718-6.562 5.883-10.472.59-1.95.988-3.97 1.246-6.008.273-2.04.34-4.106.539-6.16-.067 2.062.004 4.129-.145 6.199-.129 2.066-.398 4.14-.875 6.176-.93 4.07-2.746 8.011-5.449 11.3-2.688 3.286-5.977 6-9.461 8.356a65.972 65.972 0 0 1-8.23 4.688c-.985.453-1.872.878-3.036 1.277z" fill="#33691E"/></g><metadata><rdf:RDF xmlns:rdf="http://www.w3.org/1999/02/22-rdf-syntax-ns#" xmlns:rdfs="http://www.w3.org/2000/01/rdf-schema#" xmlns:dc="http://purl.org/dc/elements/1.1/"><rdf:Description about="https://iconscout.com/legal#licenses" dc:title="haiku" dc:description="haiku" dc:publisher="Iconscout" dc:date="2017-12-15" dc:format="image/svg+xml" dc:language="en"><dc:creator><rdf:Bag><rdf:li>Icons8</rdf:li></rdf:Bag></dc:creator></rdf:Description></rdf:RDF></metadata></svg>