<?xml version="1.0" encoding="UTF-8"?><svg xmlns="http://www.w3.org/2000/svg" xmlns:xlink="http://www.w3.org/1999/xlink" viewBox="0 0 48 48" version="1.1"><g id="surface1" fill="#2962FF"><path d="M10.625 16.145a7.43 7.43 0 0 1 3.973 1.14c1.238.754 2.207 1.813 2.902 3.176.7 1.355 1.05 2.887 1.05 4.59 0 1.695-.35 3.226-1.054 4.601-.703 1.368-1.664 2.438-2.894 3.203-1.23.762-2.532 1.145-3.907 1.145-1.347 0-2.605-.375-3.789-1.121-1.18-.75-2.12-1.828-2.836-3.223C3.355 28.258 3 26.711 3 25.008c0-1.676.344-3.192 1.035-4.543.688-1.348 1.637-2.402 2.836-3.176 1.203-.762 2.453-1.144 3.754-1.144zm.18.89c-1.47 0-2.668.625-3.582 1.867-.914 1.246-1.371 3.282-1.371 6.094 0 3.059.468 5.168 1.406 6.34.937 1.172 2.097 1.754 3.48 1.754.969 0 1.82-.262 2.551-.793.73-.531 1.316-1.375 1.75-2.531.438-1.153.652-2.672.652-4.547 0-2.043-.203-3.645-.613-4.797-.406-1.145-.988-2-1.746-2.555a4.165 4.165 0 0 0-2.527-.832z"/><path d="M27.898 16.234l.922-1.375h.742l.063 5.766h-.672c-.422-1.77-1.05-3.059-1.875-3.871-.824-.817-1.777-1.223-2.855-1.223-.899 0-1.637.285-2.207.852-.575.562-.86 1.246-.86 2.062 0 .504.11.95.328 1.328.22.383.543.692.977.934.434.238 1.25.496 2.445.766 1.688.386 2.867.773 3.543 1.164.68.39 1.188.886 1.52 1.484.332.594.5 1.29.5 2.094 0 1.422-.457 2.601-1.375 3.543-.918.937-2.102 1.406-3.555 1.406-1.559 0-2.91-.523-4.062-1.578l-1.157 1.473h-.734v-6.13h.734c.285 1.692.926 3.02 1.922 4 .996.981 2.117 1.47 3.36 1.47 1.011 0 1.835-.313 2.472-.938a3.066 3.066 0 0 0 .953-2.273c0-.504-.12-.95-.359-1.333-.238-.378-.613-.699-1.133-.96-.515-.262-1.535-.575-3.05-.946-1.672-.414-2.81-.875-3.419-1.39-.847-.727-1.277-1.762-1.277-3.09 0-1.395.426-2.532 1.273-3.422.848-.887 1.934-1.332 3.254-1.332.637 0 1.239.117 1.809.355.57.23 1.16.617 1.773 1.164z"/><path d="M35.52 14.238l-4.493 18.078-1.152-.238L34.371 14z"/><path d="M35.969 29.191c-.407.418 1.308.856 5.133 1.309.574.066 1-.035 1.277-.313.281-.273.652-1.082 1.125-2.425l.781.093-.926 4.805-10.28-1.219.073-.628 3.782-3.477c2.093-1.832 3.363-2.992 3.796-3.477.625-.691 1.094-1.379 1.422-2.054.325-.672.52-1.297.59-1.88.106-.956-.066-1.741-.523-2.347-.457-.613-1.149-.976-2.074-1.086-1.04-.125-1.918.031-2.633.453-.715.43-1.11.93-1.172 1.496-.024.196.008.352.101.461.079.11.266.227.563.34.754.278 1.09.79 1.004 1.516-.047.398-.215.71-.508.941-.293.23-.637.32-1.043.274-.469-.055-.848-.325-1.152-.805-.301-.48-.41-1.082-.332-1.79a4.07 4.07 0 0 1 .851-2.093c.477-.605 1.145-1.062 2.004-1.387a5.68 5.68 0 0 1 2.688-.312 5.592 5.592 0 0 1 2.507.914c.747.5 1.278 1.098 1.598 1.809.324.707.441 1.449.352 2.226a4.898 4.898 0 0 1-.485 1.602 5.512 5.512 0 0 1-1.05 1.449 15.156 15.156 0 0 1-2.278 1.898l-3.324 2.23c-.844.567-1.465 1.056-1.867 1.477z"/></g><metadata><rdf:RDF xmlns:rdf="http://www.w3.org/1999/02/22-rdf-syntax-ns#" xmlns:rdfs="http://www.w3.org/2000/01/rdf-schema#" xmlns:dc="http://purl.org/dc/elements/1.1/"><rdf:Description about="https://iconscout.com/legal#licenses" dc:title="os" dc:description="os" dc:publisher="Iconscout" dc:date="2017-12-15" dc:format="image/svg+xml" dc:language="en"><dc:creator><rdf:Bag><rdf:li>Icons8</rdf:li></rdf:Bag></dc:creator></rdf:Description></rdf:RDF></metadata></svg>