<?xml version="1.0" encoding="UTF-8"?><svg xmlns="http://www.w3.org/2000/svg" xmlns:xlink="http://www.w3.org/1999/xlink" viewBox="0 0 48 48" version="1.1"><g id="surface1"><path d="M22.973 18.574c-.293.04-.532.094-.688.14-1.36.438-2.281 1.696-2.703 3.524.094.328.18.657.23 1.012h.008c.645 5.16-1.449 8.262-4.21 9.105-1.626.5-5.157.364-7.61-.128V16.715c1.684-.324 3.488-.305 4.695-.23a12.726 12.726 0 0 1 3.375-3.86C13.078 11.363 4 12.48 4 12.48v23.688c12.254 2.43 19.016-.395 20.098-9.36.355-2.98-.11-5.68-1.125-8.234z" fill="#F44336"/><path d="M38.941 23.363a16.785 16.785 0 0 1-.379 4.64c.829.61 1.133 1.188 1.133 2.255 0 4.039-10.363 4.668-10.363-.801l-4.367.04c0 5.39 4.691 7.585 10.105 7.5 4.149-.06 8.93-1.97 8.93-7.485 0-3.457-2.645-5.54-5.059-6.149z" fill="#FFC107"/><path d="M30.336 25.543c.102.02.191.043.293.062.21-1.343.047-2.816-.516-4.535-.742-1.086-.468-1.937.024-3.011.71-1.555 3.925-3.227 6.547-1.793 1.668.918 2.164 2.578 2.32 3.734h4.289c0-7.18-10.18-10.793-15.422-5.352-3.238 3.372-2.746 9.77 2.465 10.895z" fill="#FFC107"/><path d="M15.023 30.445c1.211-.37 2.079-1.363 2.536-2.785-.004-.02-.012-.043-.016-.058-.969-6.36 1.215-9.856 4.129-10.793a7.105 7.105 0 0 1 2.644-.254c.258-1.543 2.516-3.809 3.16-4.114-8.308-2.109-14.578 3.625-14.578 10.996 0 2.762.48 5.157 1.512 7.13.332-.047.531-.098.613-.122z" fill="#8E24AA"/><path d="M23.816 33.516a11.088 11.088 0 0 1-2.957 3.011 9.687 9.687 0 0 0 2.328.446c.239.015.477.027.731.027l.004-.004c.836-.004 1.656-.129 2.512-.336-1.141-.847-2.028-1.898-2.618-3.144z" fill="#8E24AA"/><path d="M34.508 17.723c-2.07.027-2.754 1.625-2.797 1.757 1.465 3.215 1.402 6.98-.379 9.856v.121c0 1.91 2.918 1.969 3.25 1.969.129 0 .242-.02.367-.024.149-.199.29-.398.426-.586 2.613-4.398 1.55-10.437.164-12.867a2.4 2.4 0 0 0-1.031-.226z" fill="#8E24AA"/></g><metadata><rdf:RDF xmlns:rdf="http://www.w3.org/1999/02/22-rdf-syntax-ns#" xmlns:rdfs="http://www.w3.org/2000/01/rdf-schema#" xmlns:dc="http://purl.org/dc/elements/1.1/"><rdf:Description about="https://iconscout.com/legal#licenses" dc:title="dos" dc:description="dos" dc:publisher="Iconscout" dc:date="2017-12-15" dc:format="image/svg+xml" dc:language="en"><dc:creator><rdf:Bag><rdf:li>Icons8</rdf:li></rdf:Bag></dc:creator></rdf:Description></rdf:RDF></metadata></svg>