<?xml version="1.0" encoding="UTF-8"?><svg xmlns="http://www.w3.org/2000/svg" xmlns:xlink="http://www.w3.org/1999/xlink" viewBox="0 0 48 48" version="1.1"><g id="surface1"><path d="M22.809 24.512L19.32 36.59c-3.03-2.055-6.328-3.746-13.32-.832l3.41-11.946.04-.019c6.964-2.887 10.335-1.348 13.359.719z" fill="#03A9F4"/><path d="M24.633 25.68L21.188 37.62c3.027 2.07 6.382 3.719 13.363.809l3.324-11.645c-7.113 2.453-10.215.945-13.242-1.105z" fill="#FFC107"/><path d="M23.387 22.336l3.441-11.965c-3.027-2.059-6.387-3.715-13.375-.797L10.012 21.59c2.773-1.152 4.968-1.684 6.804-1.664 2.79.015 4.747 1.176 6.57 2.41z" fill="#FF5722"/><path d="M28.645 11.633l-3.442 12.031c3.02 2.063 6.668 3.75 13.36.738L42 12.414c-6.98 2.902-10.336 1.274-13.355-.781z" fill="#7CB342"/></g><metadata><rdf:RDF xmlns:rdf="http://www.w3.org/1999/02/22-rdf-syntax-ns#" xmlns:rdfs="http://www.w3.org/2000/01/rdf-schema#" xmlns:dc="http://purl.org/dc/elements/1.1/"><rdf:Description about="https://iconscout.com/legal#licenses" dc:title="windows,xp" dc:description="windows,xp" dc:publisher="Iconscout" dc:date="2017-12-15" dc:format="image/svg+xml" dc:language="en"><dc:creator><rdf:Bag><rdf:li>Icons8</rdf:li></rdf:Bag></dc:creator></rdf:Description></rdf:RDF></metadata></svg>