<?xml version="1.0" encoding="UTF-8"?><svg xmlns="http://www.w3.org/2000/svg" xmlns:xlink="http://www.w3.org/1999/xlink" viewBox="0 0 48 48" version="1.1"><g id="surface1"><path d="M40.086 32.613c-.852 1.836-1.258 2.657-2.344 4.274-1.52 2.265-3.672 5.09-6.328 5.11-2.36.019-2.969-1.509-6.176-1.481-3.203.015-3.87 1.507-6.234 1.48-2.656-.02-4.688-2.566-6.211-4.824-4.258-6.34-4.707-13.77-2.074-17.723 1.86-2.8 4.804-4.445 7.57-4.445 2.816 0 4.59 1.512 6.914 1.512 2.266 0 3.64-1.516 6.899-1.516 2.464 0 5.07 1.313 6.93 3.574-6.09 3.262-5.102 11.762 1.054 14.04z" fill="#42A5F5"/><path d="M30.047 12.07c1.27-1.574 2.23-3.8 1.883-6.07-2.07.137-4.492 1.418-5.907 3.074-1.28 1.512-2.343 3.754-1.93 5.922 2.259.07 4.595-1.23 5.954-2.926z" fill="#42A5F5"/><path d="M36.734 20.422C28 30 20 21 9.227 27.844c.375 3.023 1.53 6.3 3.566 9.328 1.52 2.258 3.555 4.805 6.21 4.828 2.364.023 3.032-1.469 6.235-1.484 3.207-.024 3.817 1.5 6.176 1.48 2.656-.02 4.809-2.844 6.328-5.11 1.086-1.616 1.492-2.437 2.344-4.273-5.207-1.925-6.695-8.3-3.352-12.191z" fill="#1E88E5"/></g><metadata><rdf:RDF xmlns:rdf="http://www.w3.org/1999/02/22-rdf-syntax-ns#" xmlns:rdfs="http://www.w3.org/2000/01/rdf-schema#" xmlns:dc="http://purl.org/dc/elements/1.1/"><rdf:Description about="https://iconscout.com/legal#licenses" dc:title="apple" dc:description="apple" dc:publisher="Iconscout" dc:date="2017-12-15" dc:format="image/svg+xml" dc:language="en"><dc:creator><rdf:Bag><rdf:li>Icons8</rdf:li></rdf:Bag></dc:creator></rdf:Description></rdf:RDF></metadata></svg>