<?xml version="1.0" encoding="UTF-8"?><svg xmlns="http://www.w3.org/2000/svg" xmlns:xlink="http://www.w3.org/1999/xlink" viewBox="0 0 48 48" version="1.1"><g id="surface1"><path d="M38 42H10c-2.21 0-4-1.79-4-4V10c0-2.21 1.79-4 4-4h28c2.21 0 4 1.79 4 4v28c0 2.21-1.79 4-4 4" fill="#FFC107"/><path d="M14.555 34.203l-.02.234c-.07.79-.047 1.141.3 1.262.642.188 1.317.348 1.99.504l.765.184.484.027c1.188.082 2.438.133 3.367-.055l.399-.078c1.226-.25 1.785-.367 2.566-.886a19.019 19.019 0 0 0 3.13-2.57c.226-.223.456-.442.69-.665.7-.66 1.426-1.344 1.872-2.144.113-.203.218-.391.324-.567.465-.804.77-1.336.906-2.465.188-1.574-.09-3.039-.781-4.125-.469-.726-1.574-1.629-2.309-2.222-.824-.672-1.074-.875-1.074-1.215.004-.387.219-.57 2.54-2.223.675-.48 1.37-.972 1.878-1.363.691-.887 1.203-2.52 1.152-2.836-.14-.242-1.312-.73-1.812-.938l-.332-.136c-.777-.356-1.692-.426-2.328-.426-.535 0-.973.05-1.242.094-.665.11-1.45.472-2.215.824-.328.152-.653.3-.97.434-.636.226-1.1.707-1.593 1.214-.172.18-.344.356-.52.524a82.683 82.683 0 0 0-2.468 2.324c-.762.734-1.52 1.469-2.305 2.18-.078.07-.156.133-.23.195-.207.172-.332.273-.492.617-.243.52-.715 2.703-.293 4 .16.496.515.91.886 1.352.227.262.446.523.637.805.336.468.836.824 1.367 1.199.332.234.672.476.988.761.22.153.356.426.36.73 0 .321-.145.602-.395.743-.66.531-1.43 1.035-2.175 1.527-.856.563-1.735 1.141-2.52 1.805-.227.172-.3.438-.395.86-.039.175-.082.351-.132.515z" fill="#FFF"/><path d="M31.938 16.191c.75-.921 1.402-2.789 1.289-3.3-.11-.52-1.582-1.063-2.442-1.426-1.195-.543-2.808-.531-3.844-.363-1.027.168-2.214.84-3.296 1.289-.954.34-1.563 1.175-2.262 1.832-1.625 1.453-3.145 3.03-4.77 4.496-.316.297-.566.39-.84.976-.27.582-.789 2.914-.312 4.367.293.903 1.062 1.512 1.582 2.282.633.879 1.672 1.351 2.465 2.074.203.113.226.527.023.64-1.539 1.22-3.277 2.122-4.77 3.391-.523.38-.5 1.086-.702 1.653-.043.718-.274 1.753.609 2.07.926.27 1.879.473 2.805.7 1.355.089 2.73.25 4.066-.02 1.535-.32 2.191-.41 3.145-1.04a19.919 19.919 0 0 0 3.21-2.636c.903-.906 2.004-1.774 2.641-2.918.645-1.168 1.11-1.727 1.29-3.215.183-1.504-.02-3.148-.856-4.453-.836-1.309-3.301-2.906-3.301-3.168 0-.254 2.867-2.145 4.27-3.23zm-16.434 16.57c.7-.585 1.516-1.058 2.262-1.6.996-.634 1.898-1.446 2.96-1.99a18.613 18.613 0 0 0-.273 1.513c-1.965 1.132-3.504 2.828-5.379 4.093.047-.656-.156-1.511.43-2.015zm6.465 3.36c-2.492.652-6.633-.18-6.692-.516-.078-.457 1.11-.94 1.653-1.39 1.172-.95 2.285-2.016 3.636-2.719.364-.226.774 0 1.11.137a8.203 8.203 0 0 0 4.34.652c.793-.18 1.586-.383 2.355-.586-1.86 1.77-3.797 3.738-6.402 4.422zm5.926-8.805c-.434.832-1.336 1.426-2.286 1.403-1.289-.16-2.601-.39-3.863-.66-.43-.11-.812.113-1.2.246-.835-.852-1.921-1.395-2.78-2.23-.723-.704-1.375-1.493-1.72-2.446-.179-.86-.112-1.734.114-2.574.137-.52.184-1.106.633-1.492 1.652-1.473 3.098-3.145 4.887-4.454-.496 1.446-.09 3.051.695 4.34 1.246 1.946 3.012 3.48 4.887 4.82 1.015.61 1.332 2.075.633 3.047zm-.637-8.57c-.77.402-1.352-.43-1.535-1.062-.453-.86.09-1.852.855-2.301 1.36-1.024 4.406.086 4.5.34.098.25-2.437 2.164-3.82 3.023z" fill="#263238"/></g><metadata><rdf:RDF xmlns:rdf="http://www.w3.org/1999/02/22-rdf-syntax-ns#" xmlns:rdfs="http://www.w3.org/2000/01/rdf-schema#" xmlns:dc="http://purl.org/dc/elements/1.1/"><rdf:Description about="https://iconscout.com/legal#licenses" dc:title="symbian" dc:description="symbian" dc:publisher="Iconscout" dc:date="2017-12-15" dc:format="image/svg+xml" dc:language="en"><dc:creator><rdf:Bag><rdf:li>Icons8</rdf:li></rdf:Bag></dc:creator></rdf:Description></rdf:RDF></metadata></svg>