<?xml version="1.0" encoding="UTF-8"?><svg xmlns="http://www.w3.org/2000/svg" xmlns:xlink="http://www.w3.org/1999/xlink" viewBox="0 0 48 48" version="1.1"><g id="surface1" fill-rule="evenodd"><path d="M36.945 23v2H25.992v-2z" fill="#F44336"/><path d="M33.508 11.012c.219.402.422 1.297.512 2.129h-5.133c.113-.68.25-1.52.511-1.97.485-.839 1.192-1.26 2.114-1.26.933 0 1.597.366 1.996 1.1zm-5.059-.192C27.48 12.035 27 13.477 27 15.148c0 1.54.414 2.899 1.246 4.079.832 1.18 2.012 1.773 3.535 1.773 1.32 0 2.438-.45 3.352-1.348.914-.898 1.531-1.875 1.867-2.93l-.426-.152c-.496.844-1.035 1.489-1.62 1.946-.583.457-1.302.687-2.15.687-1.058 0-1.968-.441-2.738-1.32-.77-.883-1.148-2.016-1.226-3.945h7.723c0-1.489-.477-2.91-1.336-3.72C34.363 9.407 33.363 9 32.219 9c-1.547 0-2.805.605-3.77 1.82z" fill="#F44336"/><path d="M16.54 19.879c-.255-.133-.54-.414-.54-.86v-6.402c.223.012.54.016.648.016h.754c1.633 0 2.973.265 4.028.789 1.05.527 1.578 1.512 1.578 2.95 0 1.448-.45 2.425-1.348 2.933-.902.515-2.02.765-3.351.765-.926 0-1.516-.062-1.77-.191zM19.503 21c1.453 0 2.676-.195 3.668-.59C25.059 19.656 26 18.277 26 16.27c0-1.196-.426-2.125-1.273-2.79-.848-.664-1.872-1.14-3.067-1.425.965-.235 1.692-.532 2.176-.89C24.69 10.534 25 9.616 25 8.401c0-1.613-.492-2.75-1.719-3.41C22.055 4.328 20.398 4 18.31 4H11v.477c1.055.054 1.227-.004 1.535.27.309.269.465.882.465 1.82V18c0 .96-.156 1.57-.465 1.84-.312.262-.48.637-1.535.695V21zM16 11.64V5.845a.94.94 0 0 1 .348-.75c.129-.094.46-.14 1.007-.14 1.434 0 2.504.148 3.207.44 1.274.536 1.91 1.567 1.91 3.098 0 1.297-.55 2.195-1.656 2.695-.574.262-1.3.403-2.175.418l-2.485.036z" fill="#1565C0"/><path d="M11 23h15v2H11z" fill="#1565C0"/><path d="M34.7 29.816c-.802-.586-1.864-1.171-2.856-1.171-1.653 0-2.574.96-2.574 2.226 0 1.176 1.015 2.043 3.14 3.57C34.68 36.086 36 37.59 36 39.703 36 42.31 33.52 44 30.875 44c-1.582 0-3.473-.563-4.652-1.715l1.015-1.36c.969.68 2.032 1.43 3.59 1.43 1.629 0 2.883-.867 2.883-2.699 0-2.062-2.48-3.402-3.828-4.39-1.367-1.059-2.906-2.067-2.906-4.391 0-2.21 2.152-3.875 4.726-3.875 1.727 0 3.164.61 4.086 1.645z" fill="#455A64"/><path d="M12 35.219C12 30.617 14.96 27 19 27s7 3.617 7 8.219C26 40.125 23.32 44 19 44s-7-3.875-7-8.781zm11.86 0c0-3.074-1.34-6.219-4.801-6.219-3.457 0-4.918 3.145-4.918 6.219 0 3.215 1.296 6.781 4.918 6.781 3.62 0 4.8-3.566 4.8-6.781z" fill="#455A64"/></g><metadata><rdf:RDF xmlns:rdf="http://www.w3.org/1999/02/22-rdf-syntax-ns#" xmlns:rdfs="http://www.w3.org/2000/01/rdf-schema#" xmlns:dc="http://purl.org/dc/elements/1.1/"><rdf:Description about="https://iconscout.com/legal#licenses" dc:title="beos" dc:description="beos" dc:publisher="Iconscout" dc:date="2017-12-15" dc:format="image/svg+xml" dc:language="en"><dc:creator><rdf:Bag><rdf:li>Icons8</rdf:li></rdf:Bag></dc:creator></rdf:Description></rdf:RDF></metadata></svg>