<?xml version="1.0" encoding="UTF-8"?><svg xmlns="http://www.w3.org/2000/svg" xmlns:xlink="http://www.w3.org/1999/xlink" viewBox="0 0 48 48" version="1.1"><g id="surface1"><path d="M42 37a5 5 0 0 1-5 5H11a5 5 0 0 1-5-5V11a5 5 0 0 1 5-5h26a5 5 0 0 1 5 5z" fill="#0097A7"/><path d="M11 42h26a5 5 0 0 0 5-5v-5c-1.059-.305-9.426-2.543-17.75-2.543C15.332 29.457 6 32 6 32v5a5 5 0 0 0 5 5z" fill="#37474F"/><path d="M34.664 13c-.516 0-1.031.016-1.547.027-1.715.047-3.48.012-5.219-.027a.349.349 0 0 0-.238.102.378.378 0 0 0-.101.253v.73c0 .196.144.356.332.356 2.504.028 2.882.715 2.882 3.063V27.8s-1.304-1.457-1.726-1.934c-1.363-1.555-2.856-3.254-4.254-4.902-1-1.176-1.941-2.242-2.79-3.207-1.706-1.938-3.058-3.473-3.769-4.602a.34.34 0 0 0-.28-.156c-.36 0-.731.016-1.099.027-1.199.047-2.34.012-3.511-.027-.094.008-.18.031-.242.098a.37.37 0 0 0-.102.257v.73c0 .196.148.356.336.356 2.164 0 2.934.77 2.934 2.95l.015 13.082v.027c-.027 1.523-1.281 2.055-2.523 2.055a.345.345 0 0 0-.336.355v.735c0 .097.035.187.101.253.067.067.141.094.243.102 1.75-.043 3.515-.074 5.28-.031.595.015 1.188.031 1.774.031.184 0 .332-.16.332-.355v-.735c0-.195-.148-.355-.332-.355-1.8 0-2.937-.801-2.804-2.328.015 0 .003.003-.024.007V18.027l8.68 10.22s5.18 1.167 5.828 1.155V16.996c0-2.555.723-2.555 2.16-2.555.188 0 .336-.16.336-.355v-.73a.345.345 0 0 0-.336-.356z" fill="#FFF"/><path d="M42 32v-2.07c-2.09-.551-9.926-2.473-17.75-2.473-7.977 0-16.121 1.934-18.25 2.477V32s9.332-2.543 18.25-2.543c8.324 0 16.691 2.238 17.75 2.543z" fill="#FFF"/></g><metadata><rdf:RDF xmlns:rdf="http://www.w3.org/1999/02/22-rdf-syntax-ns#" xmlns:rdfs="http://www.w3.org/2000/01/rdf-schema#" xmlns:dc="http://purl.org/dc/elements/1.1/"><rdf:Description about="https://iconscout.com/legal#licenses" dc:title="netscape" dc:description="netscape" dc:publisher="Iconscout" dc:date="2017-12-15" dc:format="image/svg+xml" dc:language="en"><dc:creator><rdf:Bag><rdf:li>Icons8</rdf:li></rdf:Bag></dc:creator></rdf:Description></rdf:RDF></metadata></svg>