<?xml version="1.0" encoding="UTF-8"?><svg xmlns="http://www.w3.org/2000/svg" xmlns:xlink="http://www.w3.org/1999/xlink" viewBox="0 0 48 48" version="1.1"><g id="surface1"><path d="M12 29a1.999 1.999 0 1 1-4 0v-9c0-1.102.895-2 2-2s2 .898 2 2z" fill="#7CB342"/><path d="M40 29a1.999 1.999 0 1 1-4 0v-9c0-1.102.895-2 2-2s2 .898 2 2z" fill="#7CB342"/><path d="M22 40a1.999 1.999 0 1 1-4 0v-9a1.999 1.999 0 1 1 4 0z" fill="#7CB342"/><path d="M30 40a1.999 1.999 0 1 1-4 0v-9a1.999 1.999 0 1 1 4 0z" fill="#7CB342"/><path d="M14 18v15c0 1.105.895 2 2 2h16c1.105 0 2-.895 2-2V18z" fill="#7CB342"/><path d="M24 8c-6 0-9.656 3.645-10 8h20c-.348-4.355-4-8-10-8zm-4 5.598c-.55 0-1-.45-1-1 0-.551.45-1 1-1s1 .449 1 1c0 .55-.45 1-1 1zm8 0a1 1 0 1 1-.001-2 1 1 0 0 1 .001 2z" fill="#7CB342"/><path d="M30 7l-1.664 2.5" fill="none" stroke-width="2" stroke-linecap="round" stroke-linejoin="miter" stroke="#7CB342" stroke-opacity="1" stroke-miterlimit="4"/><path d="M18 7l1.332 2.082" fill="none" stroke-width="2" stroke-linecap="round" stroke-linejoin="miter" stroke="#7CB342" stroke-opacity="1" stroke-miterlimit="4"/></g><metadata><rdf:RDF xmlns:rdf="http://www.w3.org/1999/02/22-rdf-syntax-ns#" xmlns:rdfs="http://www.w3.org/2000/01/rdf-schema#" xmlns:dc="http://purl.org/dc/elements/1.1/"><rdf:Description about="https://iconscout.com/legal#licenses" dc:title="android,os" dc:description="android,os" dc:publisher="Iconscout" dc:date="2017-12-15" dc:format="image/svg+xml" dc:language="en"><dc:creator><rdf:Bag><rdf:li>Icons8</rdf:li></rdf:Bag></dc:creator></rdf:Description></rdf:RDF></metadata></svg>